<svg width="49" height="49" viewBox="0 0 49 49" fill="none" xmlns="http://www.w3.org/2000/svg">
<path d="M34.7085 24.4997V6.12467C34.7085 5.58319 34.4934 5.06388 34.1105 4.681C33.7276 4.29811 33.2083 4.08301 32.6668 4.08301H6.12516C5.58368 4.08301 5.06437 4.29811 4.68149 4.681C4.2986 5.06388 4.0835 5.58319 4.0835 6.12467V34.708L12.2502 26.5413H32.6668C33.2083 26.5413 33.7276 26.3262 34.1105 25.9433C34.4934 25.5605 34.7085 25.0412 34.7085 24.4997ZM42.8752 12.2497H38.7918V30.6247H12.2502V34.708C12.2502 35.2495 12.4653 35.7688 12.8482 36.1517C13.231 36.5346 13.7503 36.7497 14.2918 36.7497H36.7502L44.9168 44.9163V14.2913C44.9168 13.7499 44.7017 13.2306 44.3188 12.8477C43.936 12.4648 43.4166 12.2497 42.8752 12.2497Z" fill="#949494"/>
</svg>
